<svg width="30" height="31" viewBox="0 0 30 31" fill="none" xmlns="http://www.w3.org/2000/svg">
<path d="M15 0.5C12.0333 0.5 9.13319 1.37973 6.66645 3.02796C4.19971 4.67618 2.27713 7.01886 1.14181 9.75975C0.00649927 12.5006 -0.290551 15.5166 0.288227 18.4264C0.867006 21.3361 2.29562 24.0088 4.3934 26.1066C6.49119 28.2044 9.16393 29.633 12.0736 30.2118C14.9834 30.7906 17.9994 30.4935 20.7403 29.3582C23.4811 28.2229 25.8238 26.3003 27.472 23.8335C29.1203 21.3668 30 18.4667 30 15.5C29.9924 11.5241 28.4096 7.71321 25.5982 4.90182C22.7868 2.09042 18.9759 0.507624 15 0.5ZM15 28.1923C12.4897 28.1923 10.0358 27.4479 7.94854 26.0533C5.8613 24.6586 4.23449 22.6763 3.27384 20.3571C2.31319 18.0379 2.06184 15.4859 2.55158 13.0239C3.04131 10.5618 4.25014 8.30023 6.02519 6.52518C7.80024 4.75013 10.0618 3.54131 12.5239 3.05157C14.9859 2.56184 17.5379 2.81319 19.8571 3.77384C22.1764 4.73449 24.1586 6.36129 25.5533 8.44853C26.9479 10.5358 27.6923 12.9897 27.6923 15.5C27.6885 18.865 26.35 22.0912 23.9706 24.4706C21.5912 26.85 18.365 28.1885 15 28.1923ZM20.7692 18.3846C20.7654 19.4545 20.3387 20.4795 19.5822 21.236C18.8257 21.9926 17.8007 22.4193 16.7308 22.4231H16.1538V23.5769C16.1538 23.8829 16.0323 24.1764 15.8159 24.3928C15.5995 24.6092 15.306 24.7308 15 24.7308C14.694 24.7308 14.4005 24.6092 14.1841 24.3928C13.9677 24.1764 13.8462 23.8829 13.8462 23.5769V22.4231H11.5385C11.2324 22.4231 10.939 22.3015 10.7226 22.0851C10.5062 21.8687 10.3846 21.5752 10.3846 21.2692C10.3846 20.9632 10.5062 20.6697 10.7226 20.4533C10.939 20.2369 11.2324 20.1154 11.5385 20.1154H16.7308C17.1898 20.1154 17.63 19.933 17.9546 19.6084C18.2792 19.2839 18.4615 18.8436 18.4615 18.3846C18.4615 17.9256 18.2792 17.4854 17.9546 17.1608C17.63 16.8362 17.1898 16.6538 16.7308 16.6538H13.2692C12.1982 16.6538 11.171 16.2284 10.4136 15.471C9.65625 14.7136 9.23077 13.6864 9.23077 12.6154C9.23077 11.5443 9.65625 10.5171 10.4136 9.75976C11.171 9.0024 12.1982 8.57692 13.2692 8.57692H13.8462V7.42308C13.8462 7.11706 13.9677 6.82357 14.1841 6.60718C14.4005 6.3908 14.694 6.26923 15 6.26923C15.306 6.26923 15.5995 6.3908 15.8159 6.60718C16.0323 6.82357 16.1538 7.11706 16.1538 7.42308V8.57692H18.4615C18.7676 8.57692 19.061 8.69849 19.2774 8.91488C19.4938 9.13126 19.6154 9.42475 19.6154 9.73077C19.6154 10.0368 19.4938 10.3303 19.2774 10.5467C19.061 10.763 18.7676 10.8846 18.4615 10.8846H13.2692C12.8102 10.8846 12.37 11.067 12.0454 11.3915C11.7208 11.7161 11.5385 12.1564 11.5385 12.6154C11.5385 13.0744 11.7208 13.5146 12.0454 13.8392C12.37 14.1638 12.8102 14.3462 13.2692 14.3462H16.7308C17.8007 14.35 18.8257 14.7767 19.5822 15.5332C20.3387 16.2897 20.7654 17.3147 20.7692 18.3846Z" fill="white"/>
</svg>
