<svg width="30" height="31" viewBox="0 0 30 31" fill="none" xmlns="http://www.w3.org/2000/svg">
<path d="M25.6281 4.86508C24.246 3.47597 22.5997 2.37459 20.7853 1.62516C18.9709 0.87574 17.0247 0.49328 15.0603 0.500089C6.82912 0.500089 0.120603 7.17507 0.120603 15.365C0.120603 17.99 0.814068 20.54 2.11055 22.79L0 30.5L7.91455 28.43C10.1005 29.615 12.5578 30.245 15.0603 30.245C23.2914 30.245 29.9999 23.57 29.9999 15.38C29.9999 11.4051 28.4472 7.67007 25.6281 4.86508ZM15.0603 27.725C12.8291 27.725 10.6432 27.125 8.72862 26L8.27636 25.73L3.57285 26.96L4.82411 22.4L4.5226 21.935C3.28302 19.9655 2.62483 17.6889 2.62311 15.365C2.62311 8.55507 8.20098 3.00508 15.0452 3.00508C18.3618 3.00508 21.4823 4.29508 23.819 6.63507C24.976 7.78101 25.8929 9.14406 26.5166 10.6452C27.1403 12.1463 27.4583 13.7557 27.4522 15.38C27.4823 22.19 21.9045 27.725 15.0603 27.725ZM21.8743 18.485C21.4974 18.305 19.6582 17.405 19.3266 17.27C18.9798 17.15 18.7386 17.09 18.4824 17.45C18.2261 17.825 17.5175 18.665 17.3065 18.905C17.0954 19.16 16.8693 19.19 16.4924 18.995C16.1155 18.815 14.9095 18.41 13.4924 17.15C12.3768 16.16 11.6382 14.945 11.412 14.57C11.201 14.195 11.3819 14 11.5779 13.805C11.7437 13.64 11.9547 13.3701 12.1356 13.1601C12.3165 12.9501 12.3919 12.7851 12.5125 12.5451C12.6331 12.2901 12.5728 12.0801 12.4824 11.9001C12.3919 11.7201 11.6382 9.89006 11.3366 9.14006C11.0351 8.42007 10.7186 8.51007 10.4924 8.49507H9.76881C9.51253 8.49507 9.12057 8.58507 8.77384 8.96006C8.44219 9.33506 7.47736 10.2351 7.47736 12.0651C7.47736 13.8951 8.81907 15.665 8.99997 15.905C9.18088 16.16 11.6382 19.91 15.3768 21.515C16.2663 21.905 16.9597 22.13 17.5025 22.295C18.3919 22.58 19.206 22.535 19.8542 22.445C20.5778 22.34 22.0703 21.545 22.3718 20.675C22.6884 19.805 22.6884 19.07 22.5828 18.905C22.4773 18.74 22.2512 18.665 21.8743 18.485Z" fill="white"/>
</svg>
