<svg width="202" height="76" viewBox="0 0 202 76" fill="none" xmlns="http://www.w3.org/2000/svg">
<path fill-rule="evenodd" clip-rule="evenodd" d="M53.3619 20.6866C51.6383 21.6333 48.7781 22.7126 47.0059 23.0857C41.4067 24.2655 33.9343 23.3419 25.4629 20.4237C16.4038 17.3022 8.54105 16.7331 3.59087 18.8402C2.26263 19.4058 0.786752 18.4343 0.786752 16.9945V10.0171C0.786752 4.4848 5.28565 0 10.8353 0H28.8503H47.3986C52.6195 0 56.8193 4.27979 56.7044 9.48306L56.5737 15.4022C56.525 17.6086 55.3012 19.6222 53.3619 20.6866ZM43.6395 9.7065C41.1637 11.0516 40.5004 14.127 42.3003 15.9198C43.7532 17.367 45.6846 17.4757 47.2744 16.1998C49.3449 14.5382 49.4279 12.7863 47.5383 10.6234C45.8155 8.65184 45.651 8.61383 43.6395 9.7065ZM39.0909 8.06268C38.0582 7.03407 35.9316 7.80422 35.9316 9.20745C35.9316 10.7589 37.9176 11.2609 38.9862 9.9791C39.6502 9.18214 39.6794 8.64885 39.0909 8.06268ZM9.2776 6.35258C8.60537 7.26868 8.54329 8.06489 9.06747 9.04062C10.4261 11.5693 13.7896 10.2666 13.3768 7.37149C13.065 5.18021 10.5899 4.56574 9.2776 6.35258ZM3.36494 26.4985C5.01 25.6955 7.8702 24.629 9.7209 24.1284C15.2843 22.6239 22.3058 22.9382 30.3756 25.055C43.2722 28.4372 44.6362 28.6346 48.0826 27.6202C49.8092 27.1122 52.3157 25.8743 53.6519 24.8695C54.6513 24.1179 56.0821 24.8286 56.0821 26.0765V28.2741C56.0821 33.4208 56.0418 33.5281 53.6519 34.7771C49.5878 36.9021 40.3687 36.5111 34.3971 33.9608C20.0056 27.8153 13.1419 27.4995 1.254 32.4354C0.0680521 32.9277 -0.0785094 32.6723 0.132348 30.4803C0.333506 28.3776 0.870393 27.7162 3.36494 26.4985ZM45.8954 34.1433C47.0275 33.9824 47.4829 33.3858 47.4829 32.066C47.4829 29.941 45.5641 29.2029 44.2234 30.8117C42.9529 32.3371 43.9953 34.4137 45.8954 34.1433ZM0 39.1634C0 36.196 1.57553 35.0714 8.39737 33.1676C13.7872 31.663 23.4102 32.0787 27.072 33.9735C27.7838 34.3419 27.5229 35.4146 26.7209 35.4172L22.5854 35.4303C14.9612 35.4549 10.5075 36.5223 3.55186 39.9916L2.33255 40.5999C1.26109 41.1344 0 40.3578 0 39.1634ZM30.499 40.259C40.3104 42.1978 47.2862 41.993 52.4869 39.6133C54.2591 38.8029 55.792 38.1117 55.8952 38.0767C55.9984 38.0424 56.0821 41.1722 56.0821 45.0318V49.0863C56.0821 50.8624 54.9583 52.4452 53.278 53.0357C51.7362 53.5772 47.6138 53.9987 44.118 53.9712C38.8059 53.9302 36.4115 53.4617 29.5366 51.1185C22.0747 48.5757 20.7212 48.3396 14.9552 48.5764C9.99159 48.7805 7.64811 49.2788 4.25926 50.8511L3.12316 51.3782C1.68016 52.0477 0.0444922 50.933 0.146561 49.3496C0.287462 47.1711 1.5717 45.2286 3.52441 44.2406L5.74357 43.1176C8.99633 41.4716 13.2548 40.0408 16.5457 39.4881C21.4406 38.6651 22.8195 38.7418 30.499 40.259ZM17.5522 44.6847C18.1841 45.7037 19.966 45.6806 20.6076 44.646C20.8865 44.1969 20.6248 43.3426 20.0266 42.7467C19.0754 41.7993 18.8227 41.8038 18.0046 42.7854C17.4902 43.4029 17.2868 44.2572 17.5522 44.6847ZM43.7725 47.232C44.4388 47.4868 45.1095 47.1859 45.3675 46.517C45.8939 45.1495 44.8784 44.0174 43.5571 44.5C42.2531 44.9767 42.3891 46.7032 43.7725 47.232ZM38.1359 49.5589C40.4345 49.5589 41.7431 47.4711 40.4315 45.8973C39.8909 45.2486 38.8575 44.7175 38.1359 44.7175C37.4143 44.7175 36.3809 45.2486 35.8402 45.8973C34.5287 47.4711 35.8372 49.5589 38.1359 49.5589ZM3.507 55.3133C5.23059 54.3667 8.09079 53.2874 9.86298 52.9143C15.4622 51.7345 22.9346 52.6581 31.406 55.5763C40.4651 58.6978 48.3279 59.2669 53.278 57.1597C54.6063 56.5942 56.0821 57.5656 56.0821 59.0054V65.9829C56.0821 71.5152 51.5833 76 46.0336 76H28.0187H9.47028C4.24942 76 0.0496239 71.7202 0.164514 66.5169L0.295186 60.5978C0.343893 58.3914 1.5677 56.3778 3.507 55.3133ZM13.2294 66.2935C15.7052 64.9483 16.3685 61.873 14.5686 60.0802C13.1157 58.633 11.1843 58.5243 9.59453 59.8001C7.52398 61.4618 7.44099 63.2137 9.33057 65.3766C11.0534 67.3482 11.2179 67.3861 13.2294 66.2935ZM17.778 67.9373C18.8107 68.9659 20.9373 68.1958 20.9373 66.7925C20.9373 65.2411 18.9513 64.739 17.8827 66.0209C17.2187 66.8178 17.1896 67.3511 17.778 67.9373ZM47.5913 69.6474C48.2635 68.7313 48.3256 67.9351 47.8015 66.9594C46.4428 64.4307 43.0793 65.7334 43.4921 68.6285C43.8039 70.8198 46.279 71.4342 47.5913 69.6474Z" fill="#40A3C0"/>
<path d="M74.3246 29.2358C73.6566 29.2358 73.1149 29.0827 72.6996 28.7764C72.2843 28.4522 71.9593 27.9567 71.7246 27.2902L66.4432 12.6171C66.1544 11.8065 66.1995 11.1219 66.5787 10.5634C66.9759 9.98697 67.671 9.69873 68.6641 9.69873C69.3322 9.69873 69.8558 9.86086 70.235 10.1851C70.6142 10.4914 70.9121 10.9778 71.1287 11.6443L75.1642 23.7233H73.8913L78.2247 11.6443C78.4775 10.9778 78.7935 10.4914 79.1726 10.1851C79.5518 9.86086 80.0393 9.69873 80.6352 9.69873C81.231 9.69873 81.7095 9.86086 82.0706 10.1851C82.4317 10.4914 82.7296 10.9868 82.9644 11.6714L87.0269 23.7233H85.9436L90.0874 11.6443C90.3041 10.9778 90.593 10.4914 90.9541 10.1851C91.3333 9.86086 91.8569 9.69873 92.5249 9.69873C93.3555 9.69873 93.9604 9.98697 94.3396 10.5634C94.7368 11.1219 94.7819 11.8065 94.475 12.6171L89.1395 27.3172C88.9047 27.9658 88.5797 28.4522 88.1645 28.7764C87.7672 29.0827 87.2346 29.2358 86.5665 29.2358C85.8804 29.2358 85.3297 29.0827 84.9144 28.7764C84.5172 28.4522 84.2012 27.9567 83.9665 27.2902L80.1477 16.5894H80.8247L76.9247 27.3172C76.6719 27.9658 76.3469 28.4522 75.9497 28.7764C75.5524 29.0827 75.0108 29.2358 74.3246 29.2358Z" fill="#40A3C0"/>
<path d="M96.5475 29.2358C95.9878 29.2358 95.5183 29.1097 95.1392 28.8575C94.76 28.5873 94.5253 28.227 94.435 27.7766C94.3447 27.3082 94.426 26.7858 94.6787 26.2093L101.423 11.7254C101.748 11.0228 102.145 10.5094 102.614 10.1851C103.102 9.86086 103.653 9.69873 104.266 9.69873C104.88 9.69873 105.413 9.86086 105.864 10.1851C106.334 10.5094 106.74 11.0228 107.083 11.7254L113.827 26.2093C114.116 26.7858 114.215 27.3082 114.125 27.7766C114.053 28.245 113.827 28.6053 113.448 28.8575C113.087 29.1097 112.635 29.2358 112.094 29.2358C111.371 29.2358 110.812 29.0737 110.414 28.7494C110.035 28.4251 109.692 27.9027 109.385 27.1821L107.923 23.7503L109.819 25.1284H98.6601L100.583 23.7503L99.1205 27.1821C98.7955 27.9027 98.4614 28.4251 98.1184 28.7494C97.7753 29.0737 97.2517 29.2358 96.5475 29.2358ZM104.212 15.1302L101.071 22.6154L100.312 21.3183H108.194L107.435 22.6154L104.266 15.1302H104.212Z" fill="#40A3C0"/>
<path d="M121.156 29.2358C120.361 29.2358 119.747 29.0196 119.314 28.5873C118.881 28.1369 118.664 27.5154 118.664 26.7227V13.9953H114.412C113.744 13.9953 113.229 13.8241 112.868 13.4818C112.525 13.1215 112.353 12.6171 112.353 11.9686C112.353 11.302 112.525 10.7976 112.868 10.4554C113.229 10.1131 113.744 9.94193 114.412 9.94193H127.9C128.568 9.94193 129.073 10.1131 129.416 10.4554C129.777 10.7976 129.958 11.302 129.958 11.9686C129.958 12.6171 129.777 13.1215 129.416 13.4818C129.073 13.8241 128.568 13.9953 127.9 13.9953H123.647V26.7227C123.647 27.5154 123.44 28.1369 123.024 28.5873C122.609 29.0196 121.986 29.2358 121.156 29.2358Z" fill="#40A3C0"/>
<path d="M134.198 28.9926C133.349 28.9926 132.699 28.7764 132.248 28.3441C131.815 27.8937 131.598 27.2542 131.598 26.4255V12.509C131.598 11.6804 131.815 11.0498 132.248 10.6175C132.699 10.1671 133.349 9.94193 134.198 9.94193H143.379C144.029 9.94193 144.517 10.1041 144.842 10.4283C145.167 10.7526 145.329 11.221 145.329 11.8335C145.329 12.464 145.167 12.9504 144.842 13.2927C144.517 13.617 144.029 13.7791 143.379 13.7791H136.365V17.4001H142.784C143.416 17.4001 143.894 17.5622 144.219 17.8865C144.562 18.2107 144.734 18.6881 144.734 19.3186C144.734 19.9492 144.562 20.4266 144.219 20.7508C143.894 21.0751 143.416 21.2372 142.784 21.2372H136.365V25.1554H143.379C144.029 25.1554 144.517 25.3266 144.842 25.6689C145.167 25.9931 145.329 26.4615 145.329 27.074C145.329 27.7045 145.167 28.1819 144.842 28.5062C144.517 28.8305 144.029 28.9926 143.379 28.9926H134.198Z" fill="#40A3C0"/>
<path d="M150.726 29.2358C149.932 29.2358 149.318 29.0196 148.884 28.5873C148.451 28.1369 148.234 27.5154 148.234 26.7227V12.455C148.234 11.6443 148.451 11.0228 148.884 10.5905C149.336 10.1581 149.959 9.94193 150.753 9.94193H157.416C159.583 9.94193 161.253 10.4734 162.426 11.5362C163.618 12.5811 164.214 14.0403 164.214 15.9138C164.214 17.1208 163.943 18.1747 163.401 19.0754C162.878 19.9582 162.11 20.6427 161.099 21.1291C160.106 21.5975 158.878 21.8317 157.416 21.8317L157.632 21.3453H158.933C159.709 21.3453 160.395 21.5345 160.991 21.9128C161.587 22.2731 162.083 22.8315 162.481 23.5882L163.835 26.0202C164.124 26.5426 164.259 27.056 164.241 27.5604C164.223 28.0468 164.024 28.4522 163.645 28.7764C163.284 29.0827 162.751 29.2358 162.047 29.2358C161.343 29.2358 160.765 29.0917 160.314 28.8034C159.88 28.5152 159.492 28.0648 159.149 27.4523L156.685 22.9396C156.468 22.5433 156.188 22.2731 155.845 22.129C155.52 21.9668 155.141 21.8858 154.707 21.8858H153.218V26.7227C153.218 27.5154 153.01 28.1369 152.595 28.5873C152.18 29.0196 151.557 29.2358 150.726 29.2358ZM153.218 18.3729H156.522C157.479 18.3729 158.21 18.1837 158.716 17.8054C159.221 17.4271 159.474 16.8416 159.474 16.049C159.474 15.2923 159.221 14.7249 158.716 14.3466C158.21 13.9502 157.479 13.7521 156.522 13.7521H153.218V18.3729Z" fill="#40A3C0"/>
<path d="M69.2058 56.258C68.4836 56.258 67.9238 56.0599 67.5266 55.6635C67.1474 55.2672 66.9578 54.7087 66.9578 53.9882V38.9908C66.9578 38.2522 67.1655 37.6938 67.5808 37.3154C67.9961 36.9191 68.5829 36.721 69.3412 36.721C69.9732 36.721 70.4697 36.8471 70.8308 37.0993C71.21 37.3335 71.5531 37.7298 71.86 38.2882L77.683 48.7188H76.7351L82.531 38.2882C82.856 37.7298 83.1991 37.3335 83.5602 37.0993C83.9394 36.8471 84.4449 36.721 85.0769 36.721C85.7991 36.721 86.3498 36.9191 86.729 37.3154C87.1262 37.6938 87.3249 38.2522 87.3249 38.9908V53.9882C87.3249 54.7087 87.1353 55.2672 86.7561 55.6635C86.3769 56.0599 85.8172 56.258 85.0769 56.258C84.3547 56.258 83.7949 56.0599 83.3977 55.6635C83.0185 55.2672 82.8289 54.7087 82.8289 53.9882V44.6925H83.3977L79.0372 52.2587C78.7844 52.6551 78.5136 52.9523 78.2247 53.1505C77.9539 53.3486 77.5837 53.4477 77.1143 53.4477C76.6629 53.4477 76.2927 53.3486 76.0038 53.1505C75.7149 52.9523 75.4531 52.6551 75.2184 52.2587L70.8308 44.6655H71.4538V53.9882C71.4538 54.7087 71.2642 55.2672 70.885 55.6635C70.5058 56.0599 69.9461 56.258 69.2058 56.258Z" fill="#40A3C0"/>
<path d="M100.049 56.3121C98.1166 56.3121 96.4193 55.9067 94.9568 55.0961C93.4943 54.2674 92.3567 53.1144 91.5442 51.6372C90.7498 50.16 90.3525 48.4396 90.3525 46.476C90.3525 44.9988 90.5782 43.6567 91.0296 42.4497C91.4991 41.2427 92.1581 40.2068 93.0067 39.3421C93.8734 38.4774 94.9026 37.8199 96.0943 37.3695C97.286 36.9011 98.6041 36.6669 100.049 36.6669C101.981 36.6669 103.669 37.0722 105.113 37.8829C106.576 38.6936 107.713 39.8375 108.526 41.3147C109.338 42.7739 109.745 44.4943 109.745 46.476C109.745 47.9532 109.51 49.2953 109.04 50.5023C108.589 51.7093 107.93 52.7541 107.063 53.6369C106.215 54.5016 105.194 55.1681 104.003 55.6365C102.811 56.0869 101.493 56.3121 100.049 56.3121ZM100.049 52.1506C101.005 52.1506 101.818 51.9255 102.486 51.4751C103.154 51.0247 103.669 50.3762 104.03 49.5295C104.391 48.6828 104.572 47.665 104.572 46.476C104.572 44.6925 104.174 43.3054 103.38 42.3146C102.585 41.3237 101.475 40.8283 100.049 40.8283C99.1096 40.8283 98.2971 41.0535 97.611 41.5039C96.9429 41.9362 96.4283 42.5758 96.0672 43.4225C95.7061 44.2511 95.5255 45.269 95.5255 46.476C95.5255 48.2594 95.9228 49.6556 96.7172 50.6644C97.5117 51.6552 98.6221 52.1506 100.049 52.1506Z" fill="#40A3C0"/>
<path d="M115.016 56.258C114.258 56.258 113.68 56.0599 113.283 55.6635C112.886 55.2672 112.687 54.6817 112.687 53.9071V39.18C112.687 38.3873 112.886 37.7838 113.283 37.3695C113.68 36.9371 114.204 36.721 114.854 36.721C115.431 36.721 115.883 36.829 116.208 37.0452C116.533 37.2614 116.894 37.6217 117.291 38.1261L125.877 48.8269H125.118V39.0449C125.118 38.2882 125.308 37.7118 125.687 37.3154C126.084 36.9191 126.662 36.721 127.421 36.721C128.179 36.721 128.748 36.9191 129.127 37.3154C129.524 37.7118 129.723 38.2882 129.723 39.0449V54.0152C129.723 54.6997 129.542 55.2492 129.181 55.6635C128.82 56.0599 128.332 56.258 127.718 56.258C127.105 56.258 126.617 56.1499 126.256 55.9338C125.913 55.6996 125.543 55.3393 125.145 54.8529L116.56 44.125H117.318V53.9071C117.318 54.6817 117.12 55.2672 116.722 55.6635C116.343 56.0599 115.774 56.258 115.016 56.258Z" fill="#40A3C0"/>
<path d="M140.307 56.3121C139.585 56.3121 138.827 56.258 138.032 56.1499C137.256 56.0599 136.516 55.9157 135.811 55.7176C135.107 55.5194 134.475 55.2852 133.916 55.015C133.428 54.7808 133.085 54.4746 132.886 54.0962C132.688 53.6999 132.616 53.2856 132.67 52.8532C132.724 52.4209 132.877 52.0426 133.13 51.7183C133.383 51.376 133.717 51.1508 134.132 51.0427C134.548 50.9166 135.017 50.9707 135.541 51.2049C136.227 51.5291 137.003 51.7813 137.87 51.9615C138.736 52.1416 139.549 52.2317 140.307 52.2317C141.499 52.2317 142.33 52.0786 142.799 51.7723C143.287 51.4481 143.53 51.0517 143.53 50.5834C143.53 50.169 143.359 49.8357 143.016 49.5835C142.691 49.3313 142.104 49.1151 141.255 48.935L138.086 48.2594C136.353 47.8991 135.062 47.2686 134.213 46.3679C133.365 45.4671 132.941 44.3052 132.941 42.882C132.941 41.9452 133.13 41.0986 133.509 40.3419C133.907 39.5673 134.457 38.9098 135.161 38.3693C135.884 37.8289 136.732 37.4145 137.707 37.1263C138.7 36.82 139.802 36.6669 141.012 36.6669C141.95 36.6669 142.898 36.775 143.855 36.9912C144.83 37.1893 145.67 37.4956 146.374 37.9099C146.789 38.1261 147.087 38.4234 147.268 38.8017C147.448 39.18 147.521 39.5763 147.485 39.9906C147.448 40.387 147.304 40.7383 147.051 41.0445C146.816 41.3508 146.491 41.5579 146.076 41.666C145.679 41.7561 145.2 41.684 144.641 41.4498C144.117 41.2156 143.521 41.0445 142.853 40.9364C142.203 40.8103 141.571 40.7473 140.957 40.7473C140.289 40.7473 139.721 40.8283 139.251 40.9905C138.782 41.1346 138.42 41.3508 138.168 41.639C137.933 41.9272 137.816 42.2605 137.816 42.6388C137.816 43.0171 137.969 43.3414 138.276 43.6116C138.601 43.8638 139.188 44.08 140.036 44.2602L143.178 44.9357C144.93 45.314 146.239 45.9355 147.105 46.8002C147.972 47.665 148.405 48.7909 148.405 50.178C148.405 51.1148 148.216 51.9615 147.837 52.7181C147.457 53.4747 146.916 54.1233 146.212 54.6637C145.507 55.1861 144.659 55.5915 143.666 55.8797C142.673 56.1679 141.553 56.3121 140.307 56.3121Z" fill="#40A3C0"/>
<path d="M157.444 56.258C156.649 56.258 156.035 56.0418 155.602 55.6095C155.169 55.1591 154.952 54.5376 154.952 53.745V41.0175H150.7C150.032 41.0175 149.517 40.8463 149.156 40.5041C148.813 40.1438 148.642 39.6394 148.642 38.9908C148.642 38.3243 148.813 37.8199 149.156 37.4776C149.517 37.1353 150.032 36.9642 150.7 36.9642H164.188C164.856 36.9642 165.361 37.1353 165.704 37.4776C166.065 37.8199 166.246 38.3243 166.246 38.9908C166.246 39.6394 166.065 40.1438 165.704 40.5041C165.361 40.8463 164.856 41.0175 164.188 41.0175H159.935V53.745C159.935 54.5376 159.728 55.1591 159.313 55.6095C158.897 56.0418 158.274 56.258 157.444 56.258Z" fill="#40A3C0"/>
<path d="M170.486 56.0148C169.637 56.0148 168.987 55.7986 168.536 55.3663C168.103 54.9159 167.886 54.2764 167.886 53.4477V39.5313C167.886 38.7026 168.103 38.0721 168.536 37.6397C168.987 37.1893 169.637 36.9642 170.486 36.9642H179.667C180.318 36.9642 180.805 37.1263 181.13 37.4506C181.455 37.7748 181.618 38.2432 181.618 38.8557C181.618 39.4862 181.455 39.9726 181.13 40.3149C180.805 40.6392 180.318 40.8013 179.667 40.8013H172.653V44.4223H179.072C179.704 44.4223 180.182 44.5844 180.507 44.9087C180.85 45.233 181.022 45.7103 181.022 46.3409C181.022 46.9714 180.85 47.4488 180.507 47.773C180.182 48.0973 179.704 48.2594 179.072 48.2594H172.653V52.1777H179.667C180.318 52.1777 180.805 52.3488 181.13 52.6911C181.455 53.0154 181.618 53.4837 181.618 54.0962C181.618 54.7268 181.455 55.2042 181.13 55.5284C180.805 55.8527 180.318 56.0148 179.667 56.0148H170.486Z" fill="#40A3C0"/>
<path d="M187.014 56.258C186.22 56.258 185.606 56.0418 185.172 55.6095C184.739 55.1591 184.522 54.5376 184.522 53.745V39.4772C184.522 38.6666 184.739 38.045 185.172 37.6127C185.624 37.1803 186.247 36.9642 187.041 36.9642H193.704C195.871 36.9642 197.541 37.4956 198.714 38.5585C199.906 39.6033 200.502 41.0625 200.502 42.9361C200.502 44.1431 200.231 45.1969 199.689 46.0977C199.166 46.9804 198.398 47.665 197.387 48.1514C196.394 48.6197 195.166 48.8539 193.704 48.8539L193.921 48.3675H195.221C195.997 48.3675 196.683 48.5567 197.279 48.935C197.875 49.2953 198.371 49.8538 198.769 50.6104L200.123 53.0424C200.412 53.5648 200.547 54.0782 200.529 54.5826C200.511 55.069 200.312 55.4744 199.933 55.7986C199.572 56.1049 199.039 56.258 198.335 56.258C197.631 56.258 197.053 56.1139 196.602 55.8257C196.169 55.5374 195.78 55.0871 195.437 54.4746L192.973 49.9618C192.756 49.5655 192.476 49.2953 192.133 49.1512C191.808 48.989 191.429 48.908 190.996 48.908H189.506V53.745C189.506 54.5376 189.298 55.1591 188.883 55.6095C188.468 56.0418 187.845 56.258 187.014 56.258ZM189.506 45.3951H192.81C193.767 45.3951 194.498 45.2059 195.004 44.8276C195.509 44.4493 195.762 43.8638 195.762 43.0712C195.762 42.3146 195.509 41.7471 195.004 41.3688C194.498 40.9725 193.767 40.7743 192.81 40.7743H189.506V45.3951Z" fill="#40A3C0"/>
<path d="M66.9308 72.1605C66.5998 72.1605 66.344 72.0704 66.1634 71.8902C65.9829 71.7026 65.8926 71.4436 65.8926 71.1134V65.0671C65.8926 64.7218 65.9829 64.4629 66.1634 64.2902C66.344 64.1101 66.5998 64.02 66.9308 64.02C67.2693 64.02 67.5251 64.1101 67.6982 64.2902C67.8787 64.4629 67.969 64.7218 67.969 65.0671V67.5216H67.9916L70.7338 64.5042C70.8768 64.354 71.0272 64.2377 71.1852 64.1551C71.3507 64.0651 71.535 64.02 71.7382 64.02C72.0541 64.02 72.2798 64.1026 72.4153 64.2677C72.5582 64.4254 72.6222 64.613 72.6071 64.8307C72.5996 65.0409 72.5131 65.236 72.3476 65.4162L69.6166 68.3098V67.4654L72.483 70.6968C72.6786 70.9144 72.7764 71.1396 72.7764 71.3723C72.7764 71.5975 72.6974 71.7852 72.5394 71.9353C72.3889 72.0854 72.1632 72.1605 71.8623 72.1605C71.6065 72.1605 71.3996 72.1117 71.2416 72.0141C71.0912 71.909 70.9257 71.7551 70.7451 71.5525L67.9916 68.4787H67.969V71.1134C67.969 71.4436 67.8825 71.7026 67.7094 71.8902C67.5364 72.0704 67.2769 72.1605 66.9308 72.1605Z" fill="#40A3C0"/>
<path d="M77.6768 72.183C76.9997 72.183 76.4129 72.0666 75.9163 71.8339C75.4273 71.5937 75.0511 71.256 74.7878 70.8206C74.5245 70.3853 74.3929 69.8711 74.3929 69.2781C74.3929 68.7076 74.517 68.2085 74.7653 67.7806C75.021 67.3453 75.3671 67.0075 75.8035 66.7673C76.2473 66.5196 76.7514 66.3957 77.3156 66.3957C77.7294 66.3957 78.1056 66.4633 78.4441 66.5984C78.7827 66.726 79.0723 66.9174 79.3131 67.1726C79.5538 67.4203 79.7344 67.7206 79.8548 68.0734C79.9827 68.4261 80.0466 68.8202 80.0466 69.2556C80.0466 69.4057 80.0052 69.5183 79.9225 69.5934C79.8397 69.6609 79.7081 69.6947 79.5275 69.6947H76.0743V68.7489H78.5796L78.399 68.8953C78.399 68.6176 78.3614 68.3924 78.2862 68.2197C78.2109 68.0471 78.0981 67.9157 77.9476 67.8256C77.8047 67.7356 77.6241 67.6905 77.4059 67.6905C77.1727 67.6905 76.9696 67.7468 76.7965 67.8594C76.631 67.9645 76.5031 68.1221 76.4129 68.3323C76.3226 68.5425 76.2774 68.8052 76.2774 69.1205V69.2218C76.2774 69.7547 76.394 70.1376 76.6273 70.3702C76.868 70.5954 77.2367 70.708 77.7332 70.708C77.8987 70.708 78.0868 70.6893 78.2974 70.6517C78.5156 70.6067 78.7225 70.5466 78.9181 70.4716C79.1137 70.3965 79.283 70.3853 79.4259 70.4378C79.5689 70.4828 79.678 70.5654 79.7532 70.6855C79.8359 70.7981 79.8811 70.9295 79.8886 71.0796C79.8961 71.2222 79.8623 71.3648 79.787 71.5074C79.7118 71.6425 79.5877 71.7476 79.4146 71.8227C79.1513 71.9428 78.8692 72.0329 78.5683 72.0929C78.2749 72.153 77.9777 72.183 77.6768 72.183Z" fill="#40A3C0"/>
<path d="M84.952 72.183C84.2749 72.183 83.6881 72.0666 83.1916 71.8339C82.7026 71.5937 82.3264 71.256 82.0631 70.8206C81.7998 70.3853 81.6681 69.8711 81.6681 69.2781C81.6681 68.7076 81.7922 68.2085 82.0405 67.7806C82.2963 67.3453 82.6424 67.0075 83.0787 66.7673C83.5226 66.5196 84.0266 66.3957 84.5909 66.3957C85.0047 66.3957 85.3808 66.4633 85.7194 66.5984C86.0579 66.726 86.3476 66.9174 86.5883 67.1726C86.8291 67.4203 87.0096 67.7206 87.13 68.0734C87.2579 68.4261 87.3218 68.8202 87.3218 69.2556C87.3218 69.4057 87.2805 69.5183 87.1977 69.5934C87.115 69.6609 86.9833 69.6947 86.8027 69.6947H83.3496V68.7489H85.8548L85.6742 68.8953C85.6742 68.6176 85.6366 68.3924 85.5614 68.2197C85.4862 68.0471 85.3733 67.9157 85.2228 67.8256C85.0799 67.7356 84.8993 67.6905 84.6812 67.6905C84.448 67.6905 84.2448 67.7468 84.0718 67.8594C83.9063 67.9645 83.7784 68.1221 83.6881 68.3323C83.5978 68.5425 83.5527 68.8052 83.5527 69.1205V69.2218C83.5527 69.7547 83.6693 70.1376 83.9025 70.3702C84.1433 70.5954 84.5119 70.708 85.0084 70.708C85.1739 70.708 85.362 70.6893 85.5727 70.6517C85.7909 70.6067 85.9977 70.5466 86.1934 70.4716C86.389 70.3965 86.5582 70.3853 86.7012 70.4378C86.8441 70.4828 86.9532 70.5654 87.0284 70.6855C87.1112 70.7981 87.1563 70.9295 87.1639 71.0796C87.1714 71.2222 87.1375 71.3648 87.0623 71.5074C86.9871 71.6425 86.8629 71.7476 86.6899 71.8227C86.4266 71.9428 86.1445 72.0329 85.8435 72.0929C85.5501 72.153 85.2529 72.183 84.952 72.183Z" fill="#40A3C0"/>
<path d="M90.196 74.1871C89.88 74.1871 89.6355 74.1008 89.4625 73.9282C89.2894 73.7555 89.2029 73.5041 89.2029 73.1738V67.4203C89.2029 67.0976 89.2857 66.8498 89.4512 66.6772C89.6242 66.5046 89.8687 66.4182 90.1847 66.4182C90.5082 66.4182 90.7527 66.5046 90.9182 66.6772C91.0912 66.8498 91.1778 67.0976 91.1778 67.4203V68.0734L91.0536 67.5216C91.159 67.1839 91.3771 66.9136 91.7082 66.711C92.0467 66.5008 92.4304 66.3957 92.8592 66.3957C93.3407 66.3957 93.762 66.5121 94.1231 66.7448C94.4918 66.9775 94.7776 67.3077 94.9808 67.7356C95.1839 68.1634 95.2855 68.6814 95.2855 69.2894C95.2855 69.8823 95.1839 70.3965 94.9808 70.8319C94.7776 71.2672 94.4918 71.6013 94.1231 71.8339C93.762 72.0666 93.3407 72.183 92.8592 72.183C92.4454 72.183 92.073 72.0854 91.742 71.8902C91.411 71.6951 91.189 71.4399 91.0762 71.1246H91.2116V73.1738C91.2116 73.5041 91.1213 73.7555 90.9408 73.9282C90.7677 74.1008 90.5195 74.1871 90.196 74.1871ZM92.2273 70.708C92.4304 70.708 92.6072 70.6592 92.7576 70.5617C92.9156 70.4566 93.0398 70.3027 93.1301 70.1C93.2203 69.8898 93.2655 69.6196 93.2655 69.2894C93.2655 68.7864 93.1677 68.4261 92.9721 68.2085C92.7765 67.9833 92.5282 67.8707 92.2273 67.8707C92.0241 67.8707 91.8436 67.9195 91.6856 68.0171C91.5276 68.1146 91.4035 68.2685 91.3132 68.4787C91.2229 68.6814 91.1778 68.9516 91.1778 69.2894C91.1778 69.7848 91.2756 70.1451 91.4712 70.3702C91.6668 70.5954 91.9188 70.708 92.2273 70.708Z" fill="#40A3C0"/>
<path d="M104.373 72.183C103.808 72.183 103.342 72.0967 102.973 71.924C102.612 71.7514 102.341 71.4924 102.161 71.1471C101.98 70.7943 101.89 70.3552 101.89 69.8298V67.9945H101.506C101.266 67.9945 101.077 67.9307 100.942 67.8031C100.814 67.6755 100.75 67.4916 100.75 67.2514C100.75 67.0112 100.814 66.8311 100.942 66.711C101.077 66.5834 101.266 66.5196 101.506 66.5196H101.89V65.8215C101.89 65.4912 101.976 65.2398 102.15 65.0671C102.323 64.8945 102.571 64.8082 102.894 64.8082C103.218 64.8082 103.466 64.8945 103.639 65.0671C103.812 65.2398 103.899 65.4912 103.899 65.8215V66.5196H104.824C105.072 66.5196 105.26 66.5834 105.388 66.711C105.524 66.8311 105.591 67.0112 105.591 67.2514C105.591 67.4916 105.524 67.6755 105.388 67.8031C105.26 67.9307 105.072 67.9945 104.824 67.9945H103.899V69.7622C103.899 70.04 103.963 70.2464 104.091 70.3815C104.226 70.5091 104.437 70.5729 104.722 70.5729C104.828 70.5729 104.929 70.5616 105.027 70.5391C105.125 70.5166 105.215 70.5054 105.298 70.5054C105.418 70.4978 105.516 70.5354 105.591 70.6179C105.667 70.693 105.704 70.8694 105.704 71.1471C105.704 71.3723 105.67 71.5637 105.603 71.7214C105.535 71.8715 105.415 71.9803 105.242 72.0479C105.136 72.0854 104.993 72.1154 104.813 72.1379C104.632 72.168 104.485 72.183 104.373 72.183Z" fill="#40A3C0"/>
<path d="M108.473 72.1605C108.157 72.1605 107.913 72.0741 107.74 71.9015C107.567 71.7289 107.48 71.4774 107.48 71.1471V65.0334C107.48 64.7031 107.567 64.4516 107.74 64.279C107.913 64.1063 108.157 64.02 108.473 64.02C108.797 64.02 109.045 64.1063 109.218 64.279C109.398 64.4516 109.489 64.7031 109.489 65.0334V67.4879H109.308C109.489 67.1351 109.745 66.8649 110.076 66.6772C110.414 66.4896 110.798 66.3957 111.227 66.3957C111.671 66.3957 112.035 66.482 112.321 66.6547C112.607 66.8198 112.822 67.0825 112.965 67.4428C113.107 67.7956 113.179 68.2422 113.179 68.7827V71.1471C113.179 71.4774 113.092 71.7289 112.919 71.9015C112.746 72.0741 112.498 72.1605 112.175 72.1605C111.851 72.1605 111.603 72.0741 111.43 71.9015C111.257 71.7289 111.17 71.4774 111.17 71.1471V68.8615C111.17 68.5237 111.11 68.2835 110.99 68.1409C110.877 67.9983 110.708 67.927 110.482 67.927C110.181 67.927 109.94 68.0246 109.76 68.2197C109.579 68.4074 109.489 68.6626 109.489 68.9854V71.1471C109.489 71.8227 109.15 72.1605 108.473 72.1605Z" fill="#40A3C0"/>
<path d="M118.364 72.183C117.687 72.183 117.1 72.0666 116.603 71.8339C116.114 71.5937 115.738 71.256 115.475 70.8206C115.211 70.3853 115.08 69.8711 115.08 69.2781C115.08 68.7076 115.204 68.2085 115.452 67.7806C115.708 67.3453 116.054 67.0075 116.49 66.7673C116.934 66.5196 117.438 66.3957 118.003 66.3957C118.416 66.3957 118.793 66.4633 119.131 66.5984C119.47 66.726 119.759 66.9174 120 67.1726C120.241 67.4203 120.421 67.7206 120.542 68.0734C120.67 68.4261 120.734 68.8202 120.734 69.2556C120.734 69.4057 120.692 69.5183 120.609 69.5934C120.527 69.6609 120.395 69.6947 120.214 69.6947H116.761V68.7489H119.267L119.086 68.8953C119.086 68.6176 119.048 68.3924 118.973 68.2197C118.898 68.0471 118.785 67.9157 118.635 67.8256C118.492 67.7356 118.311 67.6905 118.093 67.6905C117.86 67.6905 117.657 67.7468 117.484 67.8594C117.318 67.9645 117.19 68.1221 117.1 68.3323C117.01 68.5425 116.964 68.8052 116.964 69.1205V69.2218C116.964 69.7547 117.081 70.1376 117.314 70.3702C117.555 70.5954 117.924 70.708 118.42 70.708C118.586 70.708 118.774 70.6893 118.984 70.6517C119.203 70.6067 119.409 70.5466 119.605 70.4716C119.801 70.3965 119.97 70.3853 120.113 70.4378C120.256 70.4828 120.365 70.5654 120.44 70.6855C120.523 70.7981 120.568 70.9295 120.576 71.0796C120.583 71.2222 120.549 71.3648 120.474 71.5074C120.399 71.6425 120.275 71.7476 120.102 71.8227C119.838 71.9428 119.556 72.0329 119.255 72.0929C118.962 72.153 118.665 72.183 118.364 72.183Z" fill="#40A3C0"/>
<path d="M130.087 72.1605C129.808 72.1605 129.583 72.0967 129.41 71.9691C129.237 71.8339 129.101 71.6275 129.003 71.3498L126.803 65.236C126.682 64.8982 126.701 64.613 126.859 64.3803C127.025 64.1401 127.314 64.02 127.728 64.02C128.007 64.02 128.225 64.0876 128.383 64.2227C128.541 64.3503 128.665 64.553 128.755 64.8307L130.437 69.8636H129.906L131.712 64.8307C131.817 64.553 131.949 64.3503 132.107 64.2227C132.265 64.0876 132.468 64.02 132.716 64.02C132.964 64.02 133.164 64.0876 133.314 64.2227C133.465 64.3503 133.589 64.5567 133.687 64.8419L135.379 69.8636H134.928L136.655 64.8307C136.745 64.553 136.865 64.3503 137.016 64.2227C137.174 64.0876 137.392 64.02 137.67 64.02C138.016 64.02 138.268 64.1401 138.426 64.3803C138.592 64.613 138.611 64.8982 138.483 65.236L136.26 71.3611C136.162 71.6313 136.026 71.8339 135.853 71.9691C135.688 72.0967 135.466 72.1605 135.188 72.1605C134.902 72.1605 134.672 72.0967 134.499 71.9691C134.334 71.8339 134.202 71.6275 134.104 71.3498L132.513 66.8911H132.795L131.17 71.3611C131.065 71.6313 130.929 71.8339 130.764 71.9691C130.598 72.0967 130.373 72.1605 130.087 72.1605Z" fill="#40A3C0"/>
<path d="M141.828 72.183C141.399 72.183 141.019 72.1042 140.688 71.9465C140.365 71.7889 140.109 71.575 139.921 71.3048C139.74 71.027 139.65 70.7118 139.65 70.359C139.65 69.9536 139.755 69.6346 139.966 69.4019C140.177 69.1693 140.515 69.0041 140.982 68.9065C141.448 68.8015 142.069 68.7489 142.844 68.7489H143.464V69.6947H142.844C142.55 69.6947 142.306 69.7172 142.11 69.7622C141.922 69.7998 141.783 69.8636 141.692 69.9536C141.602 70.0362 141.557 70.1451 141.557 70.2802C141.557 70.4528 141.617 70.5954 141.738 70.708C141.866 70.8206 142.046 70.8769 142.279 70.8769C142.467 70.8769 142.633 70.8356 142.776 70.7531C142.926 70.6705 143.047 70.5579 143.137 70.4153C143.227 70.2652 143.272 70.0925 143.272 69.8974V68.5913C143.272 68.3211 143.201 68.1296 143.058 68.0171C142.923 67.9045 142.686 67.8482 142.347 67.8482C142.166 67.8482 141.963 67.8707 141.738 67.9157C141.512 67.9533 141.26 68.0246 140.982 68.1296C140.778 68.2047 140.605 68.216 140.462 68.1634C140.319 68.1109 140.207 68.0208 140.124 67.8932C140.049 67.7656 140.011 67.6267 140.011 67.4766C140.019 67.3265 140.067 67.1839 140.158 67.0488C140.256 66.9136 140.402 66.8086 140.598 66.7335C140.959 66.5984 141.29 66.5083 141.591 66.4633C141.899 66.4182 142.181 66.3957 142.437 66.3957C143.054 66.3957 143.562 66.4858 143.961 66.6659C144.367 66.8386 144.668 67.1088 144.864 67.4766C145.067 67.8369 145.168 68.3023 145.168 68.8728V71.1471C145.168 71.4774 145.089 71.7289 144.931 71.9015C144.773 72.0741 144.544 72.1605 144.243 72.1605C143.934 72.1605 143.697 72.0741 143.532 71.9015C143.374 71.7289 143.295 71.4774 143.295 71.1471V70.8544L143.363 71.012C143.325 71.2522 143.239 71.4586 143.103 71.6313C142.968 71.8039 142.791 71.939 142.573 72.0366C142.355 72.1342 142.106 72.183 141.828 72.183Z" fill="#40A3C0"/>
<path d="M150.239 72.183C149.675 72.183 149.209 72.0967 148.84 71.924C148.479 71.7514 148.208 71.4924 148.027 71.1471C147.847 70.7943 147.757 70.3552 147.757 69.8298V67.9945H147.373C147.132 67.9945 146.944 67.9307 146.809 67.8031C146.681 67.6755 146.617 67.4916 146.617 67.2514C146.617 67.0112 146.681 66.8311 146.809 66.711C146.944 66.5834 147.132 66.5196 147.373 66.5196H147.757V65.8215C147.757 65.4912 147.843 65.2398 148.016 65.0671C148.189 64.8945 148.437 64.8082 148.761 64.8082C149.084 64.8082 149.333 64.8945 149.506 65.0671C149.679 65.2398 149.765 65.4912 149.765 65.8215V66.5196H150.691C150.939 66.5196 151.127 66.5834 151.255 66.711C151.39 66.8311 151.458 67.0112 151.458 67.2514C151.458 67.4916 151.39 67.6755 151.255 67.8031C151.127 67.9307 150.939 67.9945 150.691 67.9945H149.765V69.7622C149.765 70.04 149.829 70.2464 149.957 70.3815C150.093 70.5091 150.303 70.5729 150.589 70.5729C150.694 70.5729 150.796 70.5616 150.894 70.5391C150.992 70.5166 151.082 70.5054 151.165 70.5054C151.285 70.4978 151.383 70.5354 151.458 70.6179C151.533 70.693 151.571 70.8694 151.571 71.1471C151.571 71.3723 151.537 71.5637 151.469 71.7214C151.402 71.8715 151.281 71.9803 151.108 72.0479C151.003 72.0854 150.86 72.1154 150.679 72.1379C150.499 72.168 150.352 72.183 150.239 72.183Z" fill="#40A3C0"/>
<path d="M156.118 72.183C155.44 72.183 154.854 72.0666 154.357 71.8339C153.868 71.5937 153.492 71.256 153.229 70.8206C152.965 70.3853 152.834 69.8711 152.834 69.2781C152.834 68.7076 152.958 68.2085 153.206 67.7806C153.462 67.3453 153.808 67.0075 154.244 66.7673C154.688 66.5196 155.192 66.3957 155.756 66.3957C156.17 66.3957 156.546 66.4633 156.885 66.5984C157.223 66.726 157.513 66.9174 157.754 67.1726C157.995 67.4203 158.175 67.7206 158.296 68.0734C158.423 68.4261 158.487 68.8202 158.487 69.2556C158.487 69.4057 158.446 69.5183 158.363 69.5934C158.28 69.6609 158.149 69.6947 157.968 69.6947H154.515V68.7489H157.02L156.84 68.8953C156.84 68.6176 156.802 68.3924 156.727 68.2197C156.652 68.0471 156.539 67.9157 156.388 67.8256C156.245 67.7356 156.065 67.6905 155.847 67.6905C155.613 67.6905 155.41 67.7468 155.237 67.8594C155.072 67.9645 154.944 68.1221 154.854 68.3323C154.763 68.5425 154.718 68.8052 154.718 69.1205V69.2218C154.718 69.7547 154.835 70.1376 155.068 70.3702C155.309 70.5954 155.677 70.708 156.174 70.708C156.339 70.708 156.528 70.6893 156.738 70.6517C156.956 70.6067 157.163 70.5466 157.359 70.4716C157.554 70.3965 157.724 70.3853 157.867 70.4378C158.01 70.4828 158.119 70.5654 158.194 70.6855C158.277 70.7981 158.322 70.9295 158.329 71.0796C158.337 71.2222 158.303 71.3648 158.228 71.5074C158.153 71.6425 158.028 71.7476 157.855 71.8227C157.592 71.9428 157.31 72.0329 157.009 72.0929C156.716 72.153 156.418 72.183 156.118 72.183Z" fill="#40A3C0"/>
<path d="M161.395 72.1605C161.064 72.1605 160.809 72.0741 160.628 71.9015C160.455 71.7289 160.368 71.4774 160.368 71.1471V67.4203C160.368 67.0976 160.451 66.8498 160.617 66.6772C160.79 66.5046 161.034 66.4182 161.35 66.4182C161.666 66.4182 161.907 66.5046 162.072 66.6772C162.238 66.8498 162.321 67.0976 162.321 67.4203V67.8819H162.208C162.283 67.4316 162.475 67.075 162.783 66.8123C163.099 66.5496 163.491 66.4107 163.957 66.3957C164.175 66.3882 164.337 66.4445 164.442 66.5646C164.555 66.6772 164.615 66.8911 164.623 67.2064C164.623 67.4766 164.566 67.6905 164.454 67.8482C164.341 68.0058 164.126 68.0996 163.81 68.1296L163.551 68.1522C163.152 68.1897 162.862 68.3023 162.682 68.4899C162.501 68.6701 162.411 68.9403 162.411 69.3006V71.1471C162.411 71.4774 162.324 71.7289 162.151 71.9015C161.978 72.0741 161.726 72.1605 161.395 72.1605Z" fill="#40A3C0"/>
<path d="M171.707 72.1605C171.376 72.1605 171.116 72.0704 170.928 71.8902C170.747 71.7026 170.657 71.4361 170.657 71.0908V65.191C170.657 64.8457 170.747 64.583 170.928 64.4028C171.116 64.2152 171.387 64.1214 171.741 64.1214H175.498C175.769 64.1214 175.972 64.1889 176.108 64.324C176.243 64.4591 176.311 64.6543 176.311 64.9095C176.311 65.1722 176.243 65.3749 176.108 65.5175C175.972 65.6526 175.769 65.7202 175.498 65.7202H172.734V67.319H175.25C175.513 67.319 175.713 67.3865 175.848 67.5216C175.991 67.6568 176.063 67.8519 176.063 68.1071C176.063 68.3698 175.991 68.5688 175.848 68.7039C175.713 68.839 175.513 68.9065 175.25 68.9065H172.734V71.0908C172.734 71.8039 172.391 72.1605 171.707 72.1605Z" fill="#40A3C0"/>
<path d="M180.635 72.183C179.912 72.183 179.378 71.9916 179.032 71.6088C178.694 71.2184 178.524 70.633 178.524 69.8523V65.0334C178.524 64.7031 178.611 64.4516 178.784 64.279C178.957 64.1063 179.201 64.02 179.517 64.02C179.841 64.02 180.089 64.1063 180.262 64.279C180.443 64.4516 180.533 64.7031 180.533 65.0334V69.7848C180.533 70.0625 180.586 70.2652 180.691 70.3928C180.804 70.5204 180.947 70.5842 181.12 70.5842C181.173 70.5842 181.225 70.5804 181.278 70.5729C181.338 70.5579 181.402 70.5466 181.47 70.5391C181.598 70.5391 181.692 70.5879 181.752 70.6855C181.82 70.7831 181.853 70.982 181.853 71.2822C181.853 71.545 181.801 71.7439 181.695 71.879C181.59 72.0066 181.428 72.0892 181.21 72.1267C181.15 72.1342 181.063 72.1455 180.951 72.1605C180.838 72.1755 180.732 72.183 180.635 72.183Z" fill="#40A3C0"/>
<path d="M186.218 72.183C185.601 72.183 185.063 72.0666 184.604 71.8339C184.145 71.6013 183.788 71.2672 183.532 70.8319C183.276 70.3965 183.149 69.8823 183.149 69.2894C183.149 68.839 183.22 68.4374 183.363 68.0846C183.506 67.7243 183.713 67.4203 183.984 67.1726C184.255 66.9174 184.578 66.726 184.954 66.5984C185.33 66.4633 185.752 66.3957 186.218 66.3957C186.835 66.3957 187.373 66.5121 187.832 66.7448C188.291 66.9775 188.644 67.3115 188.893 67.7468C189.148 68.1747 189.276 68.6889 189.276 69.2894C189.276 69.7322 189.205 70.1338 189.062 70.4941C188.919 70.8544 188.712 71.1621 188.441 71.4174C188.178 71.6651 187.854 71.8565 187.471 71.9916C187.095 72.1192 186.677 72.183 186.218 72.183ZM186.218 70.708C186.421 70.708 186.602 70.6592 186.76 70.5617C186.918 70.4566 187.038 70.3027 187.121 70.1C187.211 69.8898 187.256 69.6196 187.256 69.2894C187.256 68.7864 187.159 68.4261 186.963 68.2085C186.767 67.9833 186.519 67.8707 186.218 67.8707C186.015 67.8707 185.834 67.9195 185.676 68.0171C185.518 68.1146 185.394 68.2685 185.304 68.4787C185.214 68.6814 185.169 68.9516 185.169 69.2894C185.169 69.7848 185.266 70.1451 185.462 70.3702C185.658 70.5954 185.91 70.708 186.218 70.708Z" fill="#40A3C0"/>
<path d="M193.484 72.1605C193.228 72.1605 193.006 72.1004 192.818 71.9803C192.63 71.8527 192.48 71.6576 192.367 71.3948L190.832 67.6905C190.734 67.4578 190.7 67.2477 190.731 67.06C190.761 66.8649 190.851 66.711 191.001 66.5984C191.159 66.4783 191.374 66.4182 191.645 66.4182C191.878 66.4182 192.07 66.4745 192.22 66.5871C192.371 66.6922 192.506 66.9024 192.626 67.2176L193.71 70.055H193.473L194.613 67.0037C194.688 66.8011 194.789 66.6547 194.917 66.5646C195.053 66.467 195.222 66.4182 195.425 66.4182C195.643 66.4182 195.816 66.467 195.944 66.5646C196.072 66.6622 196.174 66.8086 196.249 67.0037L197.389 70.055H197.186L198.28 67.1501C198.385 66.8649 198.521 66.6735 198.686 66.5759C198.852 66.4708 199.029 66.4182 199.217 66.4182C199.473 66.4182 199.668 66.4783 199.804 66.5984C199.939 66.7185 200.014 66.8761 200.029 67.0713C200.052 67.2664 200.014 67.4766 199.916 67.7018L198.393 71.3836C198.288 71.6463 198.141 71.8415 197.953 71.9691C197.765 72.0967 197.543 72.1605 197.287 72.1605C197.024 72.1605 196.798 72.0967 196.61 71.9691C196.429 71.8415 196.283 71.6463 196.17 71.3836L194.929 68.2873H195.752L194.579 71.3611C194.473 71.6313 194.33 71.8339 194.15 71.9691C193.969 72.0967 193.747 72.1605 193.484 72.1605Z" fill="#40A3C0"/>
</svg>
